<svg width="40" height="58" xmlns="http://www.w3.org/2000/svg">
    <g fill-rule="nonzero" fill="none">
        <path d="M34.41 14.312l5.43-12.887C40.124.75 39.638 0 38.916 0H19.335c-1.11 0-2.01.915-2.01 2.045 0 1.129.9 2.044 2.01 2.044v24.534h19.58c.722 0 1.209-.75.925-1.425l-5.43-12.886z" fill="#419B57"/>
        <path d="M21.27 35.403H1.506V7.984H21.27V6.026h2.08v27.418c0 1.082-.93 1.959-2.08 1.959z" fill="#57B86E"/>
        <path d="M17.325 2.26c0 1.11.899 2.008 2.008 2.008h2.009a2.009 2.009 0 110 4.017h-4.017V2.26z" fill="#2F6A3D"/>
        <path d="M2.009 3.766H1.004C.45 3.766 0 4.216 0 4.771v52.225C0 57.55.45 58 1.004 58H2.01c.554 0 1.004-.45 1.004-1.004V4.77c0-.555-.45-1.005-1.004-1.005z" fill="#6F868E"/>
        <path d="M2.009 3.766H1.004C.45 3.766 0 4.272 0 4.896v1.13h3.013v-1.13c0-.624-.45-1.13-1.004-1.13z" fill="#8EABB6"/>
    </g>
</svg>
