<svg width="54" height="62" xmlns="http://www.w3.org/2000/svg">
    <g fill-rule="nonzero" fill="none">
        <path d="M28.833 40.883H27c0-5.189 4.104-9.395 9.167-9.395H38c0 5.189-4.104 9.395-9.167 9.395zM28.833 27.73H27c0-5.189 4.104-9.395 9.167-9.395H38c0 5.189-4.104 9.395-9.167 9.395zM27 14.577h1.833c3.544 0 6.417-2.945 6.417-6.577h-1.833C29.873 8 27 10.945 27 14.577z" fill="#419B57"/>
        <path d="M27.085 10.563l1.153-1.424c2.23-2.754 1.75-6.84-1.073-9.126l-1.153 1.425c-2.23 2.754-1.75 6.84 1.073 9.125z" fill="#695ADC"/>
        <path d="M16.35 43.082l-.058-.033-6.721-7.283a2.743 2.743 0 00-3.806-.19l-.015.013V21.967c.034-1.532-1.155-2.828-2.72-2.963-1.586-.083-2.94 1.103-3.026 2.65a2.77 2.77 0 00-.004.154V39.5c0 1.271.332 2.52.965 3.631l8.618 15.131V62H23v-7.735c0-4.62-2.538-8.888-6.65-11.183z" fill="#F7E6A1"/>
        <g fill="#57B86E">
            <path d="M27.077 49.884a.927.927 0 01-.923-.93v-35.37c0-.513.413-.93.923-.93s.923.417.923.93v35.37c0 .513-.413.93-.923.93z"/>
            <path d="M16 31.269h1.846c5.098 0 9.23 4.167 9.23 9.308h-1.845c-5.098 0-9.231-4.168-9.231-9.308zM16 18.239h1.846c5.098 0 9.23 4.167 9.23 9.307h-1.845C20.133 27.546 16 23.38 16 18.24zM27.077 14.516H25.23c-3.569 0-6.462-2.917-6.462-6.516h1.846c3.569 0 6.462 2.917 6.462 6.516z"/>
        </g>
        <path d="M13.994 49a1.04 1.04 0 01-.745-.308l-8.248-8.474c-1.382-1.417-1.327-3.6.126-4.954.4-.36 1.037-.35 1.424.023a.896.896 0 010 1.307 1.628 1.628 0 00-.06 2.36l8.247 8.473a.897.897 0 01-.067 1.328 1.047 1.047 0 01-.677.245z" fill="#EFCE4A"/>
        <path d="M31 54.265V62h13.416v-3.739l8.618-15.13c.633-1.111.966-2.361.965-3.632V21.967c.035-1.532-1.155-2.828-2.72-2.963-1.586-.083-2.94 1.103-3.025 2.65a2.77 2.77 0 00-.005.154V35.59a2.743 2.743 0 00-3.807.163l-.013.014-6.72 7.283-.06.033C33.539 45.377 31 49.644 31 54.265z" fill="#F7E6A1"/>
        <path d="M41.006 49c.284 0 .554-.112.745-.308l8.248-8.474c1.382-1.417 1.327-3.6-.126-4.954-.4-.36-1.037-.35-1.424.023a.896.896 0 000 1.307c.692.645.718 1.684.06 2.36l-8.247 8.473a.897.897 0 00.067 1.328c.185.158.427.245.677.245z" fill="#EFCE4A"/>
    </g>
</svg>
