<svg width="54" height="49" xmlns="http://www.w3.org/2000/svg">
    <g fill-rule="nonzero" fill="none">
        <path d="M49.275 4.842C41.277-3.38 33.348.212 27 6.078 20.65.212 12.786-3.445 4.725 4.842-1.56 11.3-1.59 21.678 4.725 28.1c22.206 20.536 22.201 20.5 22.201 20.5s.032.068 22.347-20.5c6.318-6.423 6.286-16.8.002-23.258z" fill="#695ADC"/>
        <path d="M27.015 6.059L27 6.047V48.6c.356-.31 2.974-2.652 22.276-20.484 6.314-6.431 6.283-16.825 0-23.293-7.992-8.236-15.915-4.637-22.26 1.236z" fill="#2C208F"/>
    </g>
</svg>
