<?xml version="1.0" standalone="no"?>
<!DOCTYPE svg PUBLIC "-//W3C//DTD SVG 20010904//EN"
 "http://www.w3.org/TR/2001/REC-SVG-20010904/DTD/svg10.dtd">
<svg version="1.0" xmlns="http://www.w3.org/2000/svg"
 width="640.000000pt" height="640.000000pt" viewBox="0 0 640.000000 640.000000"
 preserveAspectRatio="xMidYMid meet">
<metadata>
Created by potrace 1.11, written by Peter Selinger 2001-2013
</metadata>
<g transform="translate(0.000000,640.000000) scale(0.100000,-0.100000)"
fill="#000000" stroke="none">
<path d="M910 4860 c-8 -5 -17 -7 -20 -5 -4 2 -7 -1 -8 -8 -5 -40 -4 -568 1
-573 3 -4 23 -6 44 -7 79 0 72 -11 73 131 0 70 0 134 0 142 0 8 -1 59 -2 113
-3 91 -2 98 17 103 36 8 145 10 157 3 7 -4 16 -5 22 -2 14 9 137 9 143 0 2 -4
9 -4 15 -1 18 11 158 10 158 -1 0 -7 3 -7 8 0 8 12 1020 13 1040 1 6 -4 12 -4
12 1 0 6 2867 10 3020 4 l25 -1 -3 -1592 c-1 -875 -4 -1593 -6 -1595 -7 -7
-866 -8 -866 -2 0 4 -18 3 -40 -1 -22 -4 -40 -4 -40 0 0 4 -18 4 -40 0 -22 -4
-40 -4 -40 0 0 4 -18 4 -40 0 -22 -4 -40 -5 -40 -1 0 3 -162 4 -360 1 -198 -3
-360 -2 -360 1 0 4 -18 3 -40 -1 -22 -4 -40 -4 -40 0 0 4 -18 4 -40 0 -22 -4
-40 -4 -40 0 0 4 -18 4 -40 0 -26 -5 -41 -3 -44 4 -2 6 -5 7 -5 1 -1 -7 -427
-9 -1262 -8 -1020 1 -1263 4 -1270 15 -5 7 -3 16 4 20 7 4 8 8 2 8 -11 0 -11
102 -1 119 4 6 4 11 -1 11 -4 0 -8 92 -7 205 l1 205 -59 0 c-53 0 -58 -2 -59
-22 -4 -109 0 -638 4 -645 4 -6 905 -10 2422 -10 2223 -1 2417 1 2423 16 3 9
6 769 6 1689 -1 1413 -3 1675 -15 1682 -7 5 -16 6 -19 2 -8 -10 -3490 -9
-3490 2 0 5 -6 4 -12 0 -11 -8 -621 -11 -638 -4 -3 1 -9 1 -15 0 -27 -7 -155
-5 -155 3 0 4 -6 5 -12 0 -18 -11 -148 -11 -148 0 0 6 -5 6 -12 0 -14 -10
-268 -10 -284 -1 -5 4 -16 3 -24 -2z"/>
<path d="M1306 3984 c-9 -8 -13 -1045 -7 -1564 l1 -45 378 1 c338 0 472 7 507
24 3 1 8 3 13 4 62 14 142 56 195 103 33 29 107 123 107 136 0 3 5 18 12 34
22 55 31 102 31 173 1 166 -75 291 -213 355 -36 16 -66 30 -68 31 -10 5 14 33
34 38 13 4 24 11 24 16 0 6 5 10 10 10 18 0 71 61 96 110 29 58 39 106 38 191
-2 124 -57 236 -147 299 -23 16 -48 34 -54 40 -7 6 -13 9 -13 6 0 -3 -16 2
-37 10 -20 9 -61 20 -92 25 -80 15 -802 17 -815 3z m529 -175 c205 -2 227 -5
307 -42 96 -45 136 -184 88 -309 -22 -59 -55 -91 -119 -121 -56 -25 -112 -29
-381 -31 l-215 -1 -3 252 -2 252 32 3 c18 2 47 2 63 1 17 -1 120 -3 230 -4z
m-270 -733 c71 9 97 9 101 2 3 -5 10 -5 16 -2 6 4 45 6 87 5 76 -3 98 -2 136
3 11 1 30 -1 41 -5 12 -4 25 -5 29 -1 3 4 50 7 103 8 76 1 106 -3 139 -18 36
-16 81 -63 71 -73 -8 -9 -140 -11 -145 -2 -3 5 -9 3 -14 -4 -7 -11 -9 -11 -9
1 0 13 -1 13 -10 0 -6 -9 -13 -11 -17 -5 -5 6 -19 10 -33 10 -14 0 -28 -4 -32
-10 -5 -7 -8 -7 -8 0 0 10 -443 11 -488 1 -22 -5 -23 -3 -21 55 2 53 4 58 18
46 9 -7 25 -12 36 -11z m757 -185 c3 -1 5 -16 4 -33 -2 -18 -4 -41 -5 -51 -1
-15 -4 -16 -23 -6 -13 7 -25 11 -28 10 -3 -2 -13 -7 -22 -12 -11 -6 -18 -6
-18 -1 0 10 -42 8 -59 -2 -5 -4 -12 -3 -14 1 -4 7 -142 9 -142 3 0 -1 -10 -3
-22 -4 -13 -2 -23 0 -23 3 0 3 -102 6 -227 6 l-228 0 -3 45 -3 45 403 -1 c222
-1 406 -2 410 -3z m-260 -186 l226 0 -13 -25 c-18 -33 -42 -52 -92 -72 -29
-11 -45 -13 -49 -6 -4 7 -2 8 4 4 7 -4 12 -4 12 1 0 4 -130 8 -290 8 -159 0
-290 3 -290 7 0 4 -12 3 -26 -2 -14 -6 -27 -10 -30 -10 -2 0 -4 22 -4 49 l0
48 151 -1 c83 0 153 3 156 8 3 4 8 4 12 0 3 -5 108 -9 233 -9z"/>
<path d="M828 3860 c-10 -6 -18 -8 -18 -5 0 13 -59 -26 -83 -55 -44 -52 -45
-164 0 -208 7 -8 11 -17 9 -21 -3 -4 -47 -6 -99 -5 l-94 1 -1 -32 -1 -32 286
1 c271 1 286 2 289 20 3 24 -6 47 -16 41 -12 -7 -25 16 -13 24 46 31 57 123
22 181 -41 67 -83 87 -199 96 -38 3 -72 0 -82 -6z m184 -81 c54 -27 74 -94 47
-153 -23 -50 -148 -79 -229 -52 -41 13 -80 67 -80 108 0 23 24 88 33 88 1 0
20 7 42 15 45 17 149 14 187 -6z"/>
<path d="M3008 3535 c-2 -2 -24 -5 -49 -8 -25 -3 -60 -12 -77 -21 -18 -9 -34
-16 -37 -16 -24 2 -126 -84 -175 -146 -20 -25 -67 -135 -81 -188 -26 -99 -18
-301 15 -391 5 -11 13 -33 19 -50 6 -16 22 -46 36 -65 107 -147 275 -216 456
-186 64 10 145 38 145 49 0 6 3 7 6 4 9 -8 59 27 104 73 34 34 105 140 95 140
-3 0 -1 9 5 21 17 31 20 57 7 61 -10 3 -86 3 -139 -1 -11 -1 -27 -20 -40 -47
-47 -101 -133 -155 -249 -159 -53 -1 -84 4 -126 21 -53 22 -113 75 -113 100 0
7 -4 14 -9 16 -12 4 -46 133 -46 173 l0 30 295 2 c162 1 330 2 373 2 l78 1 -2
88 c-1 48 -4 91 -7 96 -3 5 -6 23 -8 40 -4 45 -14 90 -22 96 -4 3 -8 11 -10
18 -4 21 -50 89 -80 119 -27 27 -87 73 -95 73 -3 0 -22 8 -43 17 -22 9 -41 17
-44 18 -3 0 -14 4 -25 8 -22 7 -151 17 -157 12z m175 -176 c25 -13 47 -30 47
-37 0 -7 4 -11 8 -8 14 8 64 -94 77 -157 9 -42 10 -59 1 -65 -6 -4 -132 -7
-281 -7 -299 0 -290 -2 -273 65 15 59 58 137 93 168 18 17 36 28 39 25 3 -4 6
-1 6 5 0 6 21 18 48 27 67 21 175 14 235 -16z"/>
<path d="M4057 3534 c-1 -2 -17 -6 -36 -9 -66 -11 -155 -65 -218 -132 -35 -37
-63 -72 -63 -80 0 -7 -5 -13 -10 -13 -6 0 -9 -3 -8 -7 0 -5 -7 -26 -17 -48 -9
-22 -18 -44 -19 -50 -1 -5 -5 -19 -9 -30 -19 -56 -26 -224 -12 -300 4 -22 7
-46 8 -52 0 -7 4 -13 9 -13 5 0 6 -4 3 -10 -10 -16 52 -134 96 -184 38 -42
136 -115 145 -108 2 1 17 -4 33 -13 25 -13 115 -29 161 -29 91 0 233 42 283
84 47 38 66 58 93 95 16 22 33 43 39 47 5 4 7 8 2 8 -4 0 2 18 13 40 11 21 20
50 20 62 0 22 -3 23 -78 23 -57 1 -80 -3 -89 -15 -6 -8 -10 -18 -7 -21 2 -3
-6 -16 -17 -27 -10 -12 -19 -24 -19 -27 1 -21 -1 -26 -7 -22 -9 4 -44 -29 -37
-35 4 -5 -82 -50 -106 -56 -66 -16 -230 5 -230 30 0 4 -4 8 -10 8 -15 0 -60
42 -60 56 0 6 -6 17 -14 23 -17 15 -44 102 -51 169 l-6 52 343 0 c189 -1 358
-1 376 0 l34 0 -6 103 c-7 129 -16 169 -53 248 -48 103 -138 177 -267 219 -34
11 -201 22 -209 14z m148 -153 c6 -3 17 -6 25 -8 39 -6 120 -66 120 -90 0 -7
4 -13 9 -13 5 0 12 -10 16 -22 4 -13 9 -27 10 -33 21 -60 28 -117 17 -124 -18
-11 -557 -6 -555 6 1 6 3 27 5 47 1 20 6 36 11 36 4 0 6 4 3 8 -15 25 75 142
125 163 16 6 29 16 29 22 0 6 3 8 6 5 3 -3 17 -2 32 3 28 8 130 9 147 0z"/>
<path d="M4984 3495 c-39 -7 -80 -18 -92 -24 -12 -6 -22 -9 -22 -6 0 3 -10 -3
-22 -15 -12 -11 -26 -20 -31 -20 -13 0 -76 -72 -77 -87 0 -7 -5 -13 -11 -13
-5 0 -8 -4 -4 -9 3 -5 1 -12 -5 -16 -6 -4 -8 -11 -5 -16 4 -5 2 -9 -3 -9 -5 0
-8 -14 -7 -30 1 -17 -2 -33 -7 -36 -5 -3 -4 -12 3 -20 6 -8 7 -14 2 -14 -6 0
-4 -19 5 -46 15 -46 78 -124 100 -124 7 0 12 -3 12 -8 0 -7 111 -50 147 -57
10 -2 18 -4 18 -5 0 -2 22 -7 60 -15 17 -3 44 -10 60 -15 17 -5 41 -11 55 -14
36 -6 102 -35 124 -54 45 -41 44 -119 -3 -171 -75 -83 -301 -92 -387 -15 -20
18 -45 58 -50 79 -2 6 -5 20 -8 33 -3 12 -7 26 -11 31 -7 13 -144 9 -148 -4
-7 -19 5 -82 22 -113 6 -11 7 -22 4 -26 -3 -3 -1 -6 5 -6 7 0 11 -3 10 -7 -1
-5 10 -26 25 -48 27 -41 113 -101 158 -111 78 -17 133 -22 204 -19 100 5 127
10 191 39 52 24 144 106 144 129 0 7 5 18 12 25 6 6 13 17 14 24 1 7 5 27 9
43 7 34 7 33 1 95 -5 59 -18 88 -54 127 -28 30 -112 80 -112 67 0 -4 -6 -2
-12 3 -7 6 -26 14 -43 18 -45 12 -45 12 -47 14 -2 2 -14 5 -28 7 -14 3 -43 9
-65 15 -22 6 -50 13 -63 15 -56 11 -133 48 -157 75 -18 22 -25 42 -25 73 0 82
63 127 180 128 59 0 134 -12 141 -23 3 -6 8 -9 10 -8 15 13 76 -61 84 -102 3
-12 9 -25 15 -29 8 -5 105 -6 143 -1 12 1 -1 67 -22 115 -27 62 -75 112 -139
143 -31 15 -59 28 -62 29 -3 0 -24 4 -46 8 -71 13 -117 13 -190 1z"/>
<path d="M805 3405 c-75 -26 -119 -104 -109 -195 6 -63 35 -102 104 -140 36
-20 59 -24 116 -24 39 0 79 4 90 9 10 5 22 9 25 9 15 3 69 57 83 84 20 38 21
118 2 163 -14 34 -52 72 -94 96 -18 11 -23 10 -31 -5 -12 -23 3 -59 27 -67 51
-15 73 -117 38 -170 -15 -23 -101 -58 -118 -48 -5 2 -8 71 -8 154 l0 149 -42
0 c-24 -1 -61 -7 -83 -15z m71 -170 c-1 -63 -4 -115 -8 -115 -34 1 -70 16 -89
36 -27 29 -35 94 -17 135 13 29 58 57 94 58 20 1 21 -3 20 -114z"/>
<path d="M700 2961 c0 -24 6 -31 33 -40 17 -6 43 -12 57 -13 14 -2 30 -6 35
-10 10 -5 135 -38 164 -43 21 -3 26 -25 7 -25 -9 0 -17 0 -18 1 -2 0 -16 -4
-31 -10 -15 -6 -40 -13 -55 -16 -15 -3 -52 -12 -82 -21 -30 -8 -64 -16 -75
-17 -26 -3 -35 -15 -35 -54 0 -29 3 -33 38 -39 20 -4 42 -9 47 -13 6 -3 12 -6
15 -6 33 -3 210 -51 210 -57 0 -4 -2 -8 -5 -8 -2 0 -57 -14 -122 -30 -65 -17
-128 -32 -140 -35 -36 -6 -43 -14 -43 -50 0 -33 1 -34 25 -25 14 5 25 7 25 4
0 -4 6 -2 13 4 6 6 30 14 52 18 48 10 46 9 65 17 30 11 115 36 140 41 14 2 36
9 50 14 14 5 29 10 35 11 5 0 11 16 13 34 4 39 -3 43 -123 71 -38 9 -77 18
-85 20 -63 15 -100 28 -100 35 0 4 69 25 153 46 l154 38 -2 33 c-2 41 -4 43
-52 55 -50 13 -59 15 -123 33 -30 8 -66 18 -80 22 -14 4 -31 11 -37 17 -7 5
-13 7 -13 4 0 -4 -19 0 -41 8 -60 21 -69 19 -69 -14z"/>
</g>
</svg>
